<?xml version="1.0" encoding="UTF-8" standalone="no"?>
<!-- Created with Inkscape (http://www.inkscape.org/) -->

<svg
   xmlns:dc="http://purl.org/dc/elements/1.1/"
   xmlns:cc="http://creativecommons.org/ns#"
   xmlns:rdf="http://www.w3.org/1999/02/22-rdf-syntax-ns#"
   xmlns:svg="http://www.w3.org/2000/svg"
   xmlns="http://www.w3.org/2000/svg"
   xmlns:sodipodi="http://sodipodi.sourceforge.net/DTD/sodipodi-0.dtd"
   xmlns:inkscape="http://www.inkscape.org/namespaces/inkscape"
   width="297mm"
   height="210mm"
   viewBox="0 0 297 210"
   id="svg6236"
   version="1.1"
   inkscape:version="0.91 r13725"
   sodipodi:docname="interactions.svg">
  <defs
     id="defs6238" />
  <sodipodi:namedview
     inkscape:document-units="mm"
     pagecolor="#ffffff"
     bordercolor="#666666"
     borderopacity="1.0"
     inkscape:pageopacity="0.0"
     inkscape:pageshadow="2"
     inkscape:zoom="0.86831672"
     inkscape:cx="733.65315"
     inkscape:cy="380"
     inkscape:current-layer="layer1"
     id="namedview6240"
     showgrid="false"
     inkscape:object-nodes="false"
     inkscape:snap-smooth-nodes="true"
     inkscape:snap-nodes="true"
     inkscape:window-width="1855"
     inkscape:window-height="1056"
     inkscape:window-x="65"
     inkscape:window-y="24"
     inkscape:window-maximized="1" />
  <metadata
     id="metadata6242">
    <rdf:RDF>
      <cc:Work
         rdf:about="">
        <dc:format>image/svg+xml</dc:format>
        <dc:type
           rdf:resource="http://purl.org/dc/dcmitype/StillImage" />
        <dc:title></dc:title>
      </cc:Work>
    </rdf:RDF>
  </metadata>
  <g
     inkscape:label="Layer 1"
     inkscape:groupmode="layer"
     id="layer1">
    <rect
       style="opacity:1;fill:none;fill-opacity:1;stroke:#0000ff;stroke-width:1.23700001;stroke-miterlimit:4;stroke-dasharray:1.23700001, 1.23700001000000004;stroke-opacity:1;stroke-dashoffset:0"
       id="rect6251"
       width="48.103291"
       height="50.053421"
       x="23.4016"
       y="24.087294" />
    <rect
       style="opacity:1;fill:none;fill-opacity:1;stroke:#0000ff;stroke-width:1.23699999;stroke-miterlimit:4;stroke-dasharray:1.23700001, 1.23700001000000004;stroke-dashoffset:0;stroke-opacity:1"
       id="rect6251-6"
       width="48.103291"
       height="50.053421"
       x="48.753334"
       y="45.863773" />
    <rect
       style="opacity:1;fill:none;fill-opacity:1;stroke:#0000ff;stroke-width:1.23699999;stroke-miterlimit:4;stroke-dasharray:1.23700002, 1.23700002;stroke-dashoffset:0;stroke-opacity:1"
       id="rect6251-6-5"
       width="48.103291"
       height="50.053421"
       x="204.76399"
       y="105.66787" />
    <rect
       style="opacity:1;fill:none;fill-opacity:1;stroke:#0000ff;stroke-width:1.23699999;stroke-miterlimit:4;stroke-dasharray:1.23700002, 1.23700002;stroke-dashoffset:0;stroke-opacity:1"
       id="rect6251-6-3"
       width="48.103291"
       height="50.053421"
       x="180.06232"
       y="79.6661" />
    <path
       style="fill:none;fill-rule:evenodd;stroke:#0000ff;stroke-width:1.28200001;stroke-linecap:butt;stroke-linejoin:miter;stroke-opacity:1;stroke-miterlimit:4;stroke-dasharray:1.28200001,1.28200001;stroke-dashoffset:0"
       d="M 22.10151,23.437249 48.753333,46.188805"
       id="path6881"
       inkscape:connector-curvature="0" />
    <path
       style="fill:none;fill-rule:evenodd;stroke:#0000ff;stroke-width:1.28200001;stroke-linecap:butt;stroke-linejoin:miter;stroke-opacity:1;stroke-miterlimit:4;stroke-dasharray:1.28200001,1.28200001;stroke-dashoffset:0"
       d="M 22.751555,73.490669 48.103287,94.942134"
       id="path6883"
       inkscape:connector-curvature="0" />
    <path
       style="fill:none;fill-rule:evenodd;stroke:#0000ff;stroke-width:1.28200001;stroke-linecap:butt;stroke-linejoin:miter;stroke-opacity:1;stroke-miterlimit:4;stroke-dasharray:1.28200001, 1.28200000999999997;stroke-dashoffset:0"
       d="M 69.554753,23.437249 96.85662,45.538759"
       id="path6885"
       inkscape:connector-curvature="0" />
    <path
       style="fill:none;fill-rule:evenodd;stroke:#0000f9;stroke-width:1.28200001;stroke-linecap:butt;stroke-linejoin:miter;stroke-opacity:1;stroke-miterlimit:4;stroke-dasharray:1.28200001,1.28200001;stroke-dashoffset:0"
       d="M 180.06231,78.691025 205.41404,104.6928"
       id="path6887"
       inkscape:connector-curvature="0" />
    <path
       style="fill:none;fill-rule:evenodd;stroke:#0000ff;stroke-width:1.28200001;stroke-linecap:butt;stroke-linejoin:miter;stroke-opacity:1;stroke-miterlimit:4;stroke-dasharray:1.28200001,1.28200001;stroke-dashoffset:0"
       d="m 179.41226,129.39449 24.70169,24.70169"
       id="path6889"
       inkscape:connector-curvature="0" />
    <path
       style="fill:none;fill-rule:evenodd;stroke:#0000ff;stroke-width:1.28200001;stroke-linecap:butt;stroke-linejoin:miter;stroke-opacity:1;stroke-miterlimit:4;stroke-dasharray:1.28200001,1.28200001;stroke-dashoffset:0"
       d="M 69.554753,73.490669 95.556529,94.942134"
       id="path6891"
       inkscape:connector-curvature="0" />
    <path
       style="fill:none;fill-rule:evenodd;stroke:#0000ff;stroke-width:1.28200001;stroke-linecap:butt;stroke-linejoin:miter;stroke-opacity:1;stroke-miterlimit:4;stroke-dasharray:1.28200001,1.28200001;stroke-dashoffset:0"
       d="m 227.51555,128.0944 25.35173,26.65182"
       id="path6893"
       inkscape:connector-curvature="0" />
    <path
       style="fill:none;fill-rule:evenodd;stroke:#0000ff;stroke-width:1.28200001;stroke-linecap:butt;stroke-linejoin:miter;stroke-opacity:1;stroke-miterlimit:4;stroke-dasharray:1.28200001,1.28200001;stroke-dashoffset:0"
       d="m 226.8655,78.04098 25.35174,26.65182"
       id="path6897"
       inkscape:connector-curvature="0" />
    <path
       style="opacity:1;fill:#ff0000;fill-opacity:1;stroke:#0000ff;stroke-width:0;stroke-miterlimit:4;stroke-dasharray:none;stroke-dashoffset:0;stroke-opacity:0.50314469"
       id="path6927"
       sodipodi:type="arc"
       sodipodi:cx="97.344147"
       sodipodi:cy="46.026295"
       sodipodi:rx="6.0129108"
       sodipodi:ry="6.3379331"
       sodipodi:start="0"
       sodipodi:end="6.2756629"
       d="m 103.35706,46.026295 a 6.0129108,6.3379331 0 0 1 -6.001605,6.337922 6.0129108,6.3379331 0 0 1 -6.024177,-6.314084 6.0129108,6.3379331 0 0 1 5.978945,-6.36167 6.0129108,6.3379331 0 0 1 6.046667,6.290156 l -6.012743,0.04768 z" />
    <path
       style="opacity:1;fill:#ff0000;fill-opacity:1;stroke:#0000ff;stroke-width:0.09999944;stroke-miterlimit:4;stroke-dasharray:none;stroke-dashoffset:0;stroke-opacity:0.50314469"
       id="path6933"
       sodipodi:type="arc"
       sodipodi:cx="49.403378"
       sodipodi:cy="46.026295"
       sodipodi:rx="14.300978"
       sodipodi:ry="13.813444"
       sodipodi:start="0"
       sodipodi:end="6.2756629"
       d="M 63.704355,46.026295 A 14.300978,13.813444 0 0 1 49.430272,59.839714 14.300978,13.813444 0 0 1 35.102501,46.07825 14.300978,13.813444 0 0 1 49.322695,32.21307 14.300978,13.813444 0 0 1 63.703951,45.922385 l -14.300573,0.10391 z" />
    <path
       style="opacity:1;fill:#ff0000;fill-opacity:1;stroke:#0000ff;stroke-width:0;stroke-miterlimit:4;stroke-dasharray:none;stroke-dashoffset:0;stroke-opacity:0.50314469"
       id="path6935"
       sodipodi:type="arc"
       sodipodi:cx="96.531593"
       sodipodi:cy="95.754684"
       sodipodi:rx="3.2502217"
       sodipodi:ry="2.7626886"
       sodipodi:start="0"
       sodipodi:end="6.2756629"
       d="m 99.781815,95.754684 a 3.2502217,2.7626886 0 0 1 -3.244109,2.762684 3.2502217,2.7626886 0 0 1 -3.256311,-2.752293 3.2502217,2.7626886 0 0 1 3.231861,-2.773035 3.2502217,2.7626886 0 0 1 3.268467,2.741863 l -3.25013,0.02078 z" />
    <path
       style="opacity:1;fill:#ff0000;fill-opacity:1;stroke:#0000ff;stroke-width:0;stroke-miterlimit:4;stroke-dasharray:none;stroke-dashoffset:0;stroke-opacity:0.50314469"
       id="path6937"
       sodipodi:type="arc"
       sodipodi:cx="22.914066"
       sodipodi:cy="74.62825"
       sodipodi:rx="5.3628664"
       sodipodi:ry="5.6878886"
       sodipodi:start="0"
       sodipodi:end="6.2756629"
       d="m 28.276933,74.62825 a 5.3628664,5.6878886 0 0 1 -5.352781,5.687879 5.3628664,5.6878886 0 0 1 -5.372914,-5.666486 5.3628664,5.6878886 0 0 1 5.332572,-5.709191 5.3628664,5.6878886 0 0 1 5.392971,5.645012 l -5.362715,0.04279 z" />
    <path
       style="opacity:1;fill:#ff0000;fill-opacity:1;stroke:#0000ff;stroke-width:0;stroke-miterlimit:4;stroke-dasharray:none;stroke-dashoffset:0;stroke-opacity:0.50314469"
       id="path6943"
       sodipodi:type="arc"
       sodipodi:cx="228.00308"
       sodipodi:cy="80.153625"
       sodipodi:rx="4.7128224"
       sodipodi:ry="4.0627775"
       sodipodi:start="0"
       sodipodi:end="6.2756629"
       d="m 232.7159,80.153625 a 4.7128224,4.0627775 0 0 1 -4.70395,4.062771 4.7128224,4.0627775 0 0 1 -4.72166,-4.04749 4.7128224,4.0627775 0 0 1 4.6862,-4.077993 4.7128224,4.0627775 0 0 1 4.73928,4.032151 l -4.71269,0.03056 z" />
    <path
       style="opacity:1;fill:#ff0000;fill-opacity:1;stroke:#0000ff;stroke-width:0;stroke-miterlimit:4;stroke-dasharray:none;stroke-dashoffset:0;stroke-opacity:0.50314469"
       id="path6945"
       sodipodi:type="arc"
       sodipodi:cx="206.06407"
       sodipodi:cy="107.618"
       sodipodi:rx="5.5253778"
       sodipodi:ry="5.2003555"
       sodipodi:start="0"
       sodipodi:end="6.2756629"
       d="m 211.58945,107.618 a 5.5253778,5.2003555 0 0 1 -5.51499,5.20034 5.5253778,5.2003555 0 0 1 -5.53573,-5.18078 5.5253778,5.2003555 0 0 1 5.49417,-5.21984 5.5253778,5.2003555 0 0 1 5.55639,5.16116 l -5.52522,0.0391 z" />
    <path
       style="opacity:1;fill:#ff0000;fill-opacity:1;stroke:#0000ff;stroke-width:0;stroke-miterlimit:4;stroke-dasharray:none;stroke-dashoffset:0;stroke-opacity:0.50314469"
       id="path6947"
       sodipodi:type="arc"
       sodipodi:cx="182.33746"
       sodipodi:cy="130.20705"
       sodipodi:rx="10.725733"
       sodipodi:ry="10.563221"
       sodipodi:start="0"
       sodipodi:end="6.2756629"
       d="m 193.0632,130.20705 a 10.725733,10.563221 0 0 1 -10.70557,10.5632 10.725733,10.563221 0 0 1 -10.74582,-10.52347 10.725733,10.563221 0 0 1 10.66514,-10.60279 10.725733,10.563221 0 0 1 10.78594,10.4836 l -10.72543,0.0795 z" />
    <path
       style="fill:none;fill-rule:evenodd;stroke:#ff0000;stroke-width:1.18200002;stroke-linecap:butt;stroke-linejoin:miter;stroke-opacity:1;stroke-miterlimit:4;stroke-dasharray:none;stroke-dashoffset:0"
       d="m 228.00308,76.090847 c 0,0 -2.43766,-22.426532 -43.06544,-25.02671 -40.62778,-2.600178 -81.58058,-5.037842 -81.58058,-5.037842 l 0,0 0,0"
       id="path6963"
       inkscape:connector-curvature="0" />
    <path
       style="fill:none;fill-rule:evenodd;stroke:#fa0000;stroke-width:0.58200004;stroke-linecap:butt;stroke-linejoin:miter;stroke-opacity:1;stroke-miterlimit:4;stroke-dasharray:none;stroke-dashoffset:0"
       d="m 103.35706,46.026295 c 0,0 27.62689,15.113531 54.92876,20.313887 27.30186,5.200354 69.71726,9.750665 69.71726,9.750665 l 0,0"
       id="path6965"
       inkscape:connector-curvature="0" />
    <path
       style="fill:none;fill-rule:evenodd;stroke:#ff0000;stroke-width:1.70000001;stroke-linecap:butt;stroke-linejoin:miter;stroke-opacity:1;stroke-miterlimit:4;stroke-dasharray:none;stroke-dashoffset:0"
       d="m 171.61173,130.20705 c 0,0 -66.62955,-1.4626 -70.85484,-19.33883 C 96.531593,92.991996 96.531593,98.517371 96.531593,98.517371 l 0,0"
       id="path6967"
       inkscape:connector-curvature="0" />
    <path
       style="fill:none;fill-rule:evenodd;stroke:#ff0000;stroke-width:0.98200001;stroke-linecap:butt;stroke-linejoin:miter;stroke-opacity:1;stroke-miterlimit:4;stroke-dasharray:none"
       d="m 200.53869,107.618 c 0,0 -66.95456,-34.289835 -87.10594,-23.076576 -20.151381,11.213259 -16.901157,8.450572 -16.901157,8.450572 l 0,0"
       id="path6969"
       inkscape:connector-curvature="0" />
    <path
       style="fill:none;fill-rule:evenodd;stroke:#ff0000;stroke-width:2.78200001;stroke-linecap:butt;stroke-linejoin:miter;stroke-opacity:1;stroke-miterlimit:4;stroke-dasharray:none"
       d="m 49.403378,59.839738 c 0,0 -28.926979,66.629552 14.951021,76.055192 43.878001,9.42565 107.257331,-5.68788 107.257331,-5.68788"
       id="path6975"
       inkscape:connector-curvature="0" />
    <flowRoot
       xml:space="preserve"
       id="flowRoot6977"
       style="font-style:normal;font-weight:normal;font-size:40px;line-height:125%;font-family:sans-serif;letter-spacing:0px;word-spacing:0px;fill:#000000;fill-opacity:1;stroke:none;stroke-width:1px;stroke-linecap:butt;stroke-linejoin:miter;stroke-opacity:1"
       transform="scale(0.28222222,0.28222222)"><flowRegion
         id="flowRegion6979"><rect
           id="rect6981"
           width="180.8096"
           height="86.374016"
           x="497.51431"
           y="77.287102" /></flowRegion><flowPara
         id="flowPara6983" /></flowRoot>    <flowRoot
       xml:space="preserve"
       id="flowRoot6985"
       style="fill:black;stroke:none;stroke-opacity:1;stroke-width:1px;stroke-linejoin:miter;stroke-linecap:butt;fill-opacity:1;font-family:sans-serif;font-style:normal;font-weight:normal;font-size:40px;line-height:125%;letter-spacing:0px;word-spacing:0px"><flowRegion
         id="flowRegion6987"><rect
           id="rect6989"
           width="310.94644"
           height="124.37858"
           x="483.69449"
           y="35.827579" /></flowRegion><flowPara
         id="flowPara6991"></flowPara></flowRoot>    <flowRoot
       xml:space="preserve"
       id="flowRoot6993"
       style="fill:#ff0000;stroke:none;stroke-opacity:1;stroke-width:1px;stroke-linejoin:miter;stroke-linecap:butt;fill-opacity:1;font-family:sans-serif;font-style:normal;font-weight:normal;font-size:40px;line-height:125%;letter-spacing:0px;word-spacing:0px;"><flowRegion
         id="flowRegion6995"><rect
           id="rect6997"
           width="461.81305"
           height="146.25999"
           x="452.59982"
           y="18.552774"
           style="fill:#ff0000;fill-opacity:1;" /></flowRegion><flowPara
         id="flowPara6999"></flowPara></flowRoot>    <flowRoot
       xml:space="preserve"
       id="flowRoot7001"
       style="fill:black;stroke:none;stroke-opacity:1;stroke-width:1px;stroke-linejoin:miter;stroke-linecap:butt;fill-opacity:1;font-family:sans-serif;font-style:normal;font-weight:normal;font-size:40px;line-height:125%;letter-spacing:0px;word-spacing:0px"><flowRegion
         id="flowRegion7003"><rect
           id="rect7005"
           width="409.98865"
           height="152.01826"
           x="439.93164"
           y="38.130886" /></flowRegion><flowPara
         id="flowPara7007"></flowPara></flowRoot>  </g>
</svg>
